<svg xmlns="http://www.w3.org/2000/svg" viewBox="0 0 640 360" width="640" height="360" role="img" aria-label="code sample 3"><rect width="640" height="360" fill="#0b1020"/><rect x="24" y="28" width="96" height="9" rx="4" fill="#bd93f9" opacity="0.54"/><rect x="132" y="28" width="101" height="9" rx="4" fill="#50fa7b" opacity="0.61"/><rect x="24" y="50" width="65" height="9" rx="4" fill="#f1fa8c" opacity="0.51"/><rect x="101" y="50" width="136" height="9" rx="4" fill="#f1fa8c" opacity="0.60"/><rect x="249" y="50" width="126" height="9" rx="4" fill="#8be9fd" opacity="0.48"/><rect x="387" y="50" width="47" height="9" rx="4" fill="#ff79c6" opacity="0.57"/><rect x="40" y="72" width="33" height="9" rx="4" fill="#50fa7b" opacity="0.77"/><rect x="85" y="72" width="104" height="9" rx="4" fill="#bd93f9" opacity="0.89"/><rect x="201" y="72" width="53" height="9" rx="4" fill="#50fa7b" opacity="0.86"/><rect x="266" y="72" width="132" height="9" rx="4" fill="#ff79c6" opacity="0.86"/><rect x="24" y="94" width="31" height="9" rx="4" fill="#bd93f9" opacity="0.79"/><rect x="67" y="94" width="67" height="9" rx="4" fill="#8be9fd" opacity="0.60"/><rect x="146" y="94" width="62" height="9" rx="4" fill="#8be9fd" opacity="0.82"/><rect x="220" y="94" width="107" height="9" rx="4" fill="#8be9fd" opacity="0.75"/><rect x="24" y="116" width="108" height="9" rx="4" fill="#bd93f9" opacity="0.87"/><rect x="144" y="116" width="96" height="9" rx="4" fill="#f1fa8c" opacity="0.89"/><rect x="252" y="116" width="75" height="9" rx="4" fill="#50fa7b" opacity="0.72"/><rect x="339" y="116" width="137" height="9" rx="4" fill="#ff79c6" opacity="0.47"/><rect x="488" y="116" width="107" height="9" rx="4" fill="#bd93f9" opacity="0.85"/><rect x="40" y="138" width="109" height="9" rx="4" fill="#50fa7b" opacity="0.68"/><rect x="161" y="138" width="122" height="9" rx="4" fill="#ff79c6" opacity="0.90"/><rect x="295" y="138" width="134" height="9" rx="4" fill="#ff79c6" opacity="0.93"/><rect x="56" y="160" width="95" height="9" rx="4" fill="#bd93f9" opacity="0.63"/><rect x="163" y="160" width="88" height="9" rx="4" fill="#f1fa8c" opacity="0.82"/><rect x="56" y="182" width="56" height="9" rx="4" fill="#ff79c6" opacity="0.53"/><rect x="124" y="182" width="101" height="9" rx="4" fill="#8be9fd" opacity="0.60"/><rect x="237" y="182" width="102" height="9" rx="4" fill="#8be9fd" opacity="0.86"/><rect x="351" y="182" width="100" height="9" rx="4" fill="#f1fa8c" opacity="0.59"/><rect x="463" y="182" width="77" height="9" rx="4" fill="#8be9fd" opacity="0.45"/><rect x="40" y="204" width="38" height="9" rx="4" fill="#50fa7b" opacity="0.83"/><rect x="90" y="204" width="77" height="9" rx="4" fill="#bd93f9" opacity="0.48"/><rect x="24" y="226" width="105" height="9" rx="4" fill="#f1fa8c" opacity="0.95"/><rect x="141" y="226" width="41" height="9" rx="4" fill="#8be9fd" opacity="0.65"/><rect x="194" y="226" width="96" height="9" rx="4" fill="#bd93f9" opacity="0.61"/><rect x="56" y="248" width="81" height="9" rx="4" fill="#50fa7b" opacity="0.87"/><rect x="149" y="248" width="63" height="9" rx="4" fill="#ff79c6" opacity="0.58"/><rect x="224" y="248" width="136" height="9" rx="4" fill="#bd93f9" opacity="0.55"/><rect x="372" y="248" width="54" height="9" rx="4" fill="#50fa7b" opacity="0.48"/><rect x="438" y="248" width="113" height="9" rx="4" fill="#ff79c6" opacity="0.87"/><rect x="24" y="270" width="59" height="9" rx="4" fill="#f1fa8c" opacity="0.93"/><rect x="95" y="270" width="81" height="9" rx="4" fill="#8be9fd" opacity="0.80"/><rect x="188" y="270" width="44" height="9" rx="4" fill="#bd93f9" opacity="0.66"/><rect x="244" y="270" width="45" height="9" rx="4" fill="#8be9fd" opacity="0.73"/><rect x="56" y="292" width="80" height="9" rx="4" fill="#bd93f9" opacity="0.92"/><rect x="148" y="292" width="43" height="9" rx="4" fill="#50fa7b" opacity="0.60"/><rect x="203" y="292" width="107" height="9" rx="4" fill="#ff79c6" opacity="0.54"/><rect x="322" y="292" width="39" height="9" rx="4" fill="#f1fa8c" opacity="0.84"/><rect x="40" y="314" width="76" height="9" rx="4" fill="#f1fa8c" opacity="0.66"/><rect x="128" y="314" width="70" height="9" rx="4" fill="#f1fa8c" opacity="0.53"/></svg>